<?xml version="1.0" encoding="utf-8"?>
<!-- Generator: Adobe Illustrator 25.4.1, SVG Export Plug-In . SVG Version: 6.00 Build 0)  -->
<svg version="1.1" id="Layer_2_00000158023087339703243200000001739082788365696384_"
	 xmlns="http://www.w3.org/2000/svg" xmlns:xlink="http://www.w3.org/1999/xlink" x="0px" y="0px" viewBox="-180 -50 720 357.2"
	 style="enable-background:new 0 0 360 357.2;" xml:space="preserve">
<style type="text/css">
	.st0{fill:#BA2031;}
	.st1{fill:#666766;}
	.st2{fill:none;}
</style>
<g>
	<path class="st0" d="M216.7,57.1L199,39.5h-38.2l-17.7,17.7V120l17.7,17.8H199l17.6-17.6L216.7,57.1L216.7,57.1z M161.2,64.8
		l7.1-7.1h23.1l7.1,7.1v47.6l-7.1,7.1h-23.1l-7.1-7.1C161.2,112.4,161.2,64.8,161.2,64.8z"/>
	<path class="st1" d="M159.2,34.8L139,55v66.9l20,20.3h41.8l20.1-20.2l0.1-67l-20-20.2H159.2z M140.8,121.1V55.8L160,36.6h40.1
		l19.3,19.2l-0.3,65.4L200,140.3h-40L140.8,121.1z"/>
	<path class="st1" d="M195.8,66.1l-5.7-5.7h-20.4l-5.6,5.6v45.2l5.5,5.5h20.8l5.4-5.4V66.1z M170.5,62.3h19l4.5,4.5v43.7l-4.4,4.4
		h-19.3l-4.3-4.3V66.7L170.5,62.3L170.5,62.3z"/>
	<polygon class="st1" points="29,177.4 28.4,173.2 20.7,173.2 20.7,200.2 24.8,200.8 24.8,203.3 10.4,203.3 10.4,200.8 14.4,200.2 
		14.4,173.2 6.8,173.2 6.2,177.4 3.5,177.4 3.5,169.8 31.7,169.8 31.7,177.4 29,177.4 	"/>
	<polygon class="st1" points="49.8,203.3 49.8,200.9 53.6,200.3 53.6,191.1 43.6,191.1 43.6,200.3 47.3,200.9 47.3,203.3 
		33.7,203.3 33.7,200.9 37.6,200.3 37.6,180 33.7,179.4 33.7,177 47.3,177 47.3,179.4 43.6,180 43.6,187.9 53.6,187.9 53.6,180 
		49.8,179.4 49.8,177 63.5,177 63.5,179.4 59.6,180 59.6,200.3 63.5,200.9 63.5,203.3 49.8,203.3 	"/>
	<polygon class="st1" points="89.1,203.3 66.4,203.3 66.4,200.9 70.3,200.3 70.3,180 66.4,179.4 66.4,177 89.1,177 89.1,184 
		86.6,184 86,180.2 76.3,180.2 76.3,188 82.4,188 83,184.7 85.2,184.7 85.2,194.4 83,194.4 82.4,191 76.3,191 76.3,200.1 86,200.1 
		86.6,196.4 89.1,196.4 89.1,203.3 	"/>
	<path class="st1" d="M121.1,172.8c-5.6,0-8.4,4.5-8.4,13.7s2.8,13.8,8.3,13.8s8.4-4.5,8.4-13.7S126.6,172.8,121.1,172.8
		L121.1,172.8z M121,203.9c-10.4,0-15-6.2-15-17.5s4.6-17.3,15-17.3s15,6.2,15,17.5S131.4,203.9,121,203.9L121,203.9z"/>
	<polygon class="st1" points="154.9,203.3 154.9,200.9 158.7,200.3 158.7,191.1 148.7,191.1 148.7,200.3 152.4,200.9 152.4,203.3 
		138.8,203.3 138.8,200.9 142.7,200.3 142.7,180 138.8,179.4 138.8,177 152.4,177 152.4,179.4 148.7,180 148.7,187.9 158.7,187.9 
		158.7,180 154.9,179.4 154.9,177 168.6,177 168.6,179.4 164.7,180 164.7,200.3 168.6,200.9 168.6,203.3 154.9,203.3 	"/>
	<polygon class="st1" points="171.9,203.3 171.9,200.9 175.8,200.3 175.8,180 171.9,179.4 171.9,177 185.7,177 185.7,179.4 
		181.8,180 181.8,200.3 185.7,200.9 185.7,203.3 171.9,203.3 	"/>
	<path class="st1" d="M200.6,180c-4.2,0-6.5,3-6.5,10.1s2.2,10.2,6.4,10.2s6.5-3,6.5-10.1S204.8,180,200.6,180z M200.6,203.8
		c-8.9,0-12.7-5-12.7-13.7s3.9-13.6,12.8-13.6s12.7,5,12.7,13.7S209.4,203.8,200.6,203.8z"/>
	<path class="st1" d="M240.7,203.9c-3.6,0-7.1-0.7-10.5-2v-7.2h2.9l0.6,4.6c1.9,0.6,4,0.8,6,0.8c3.9,0,7.4-1.3,7.4-5.6
		c0-3.9-2.7-4.4-6-5.5c-5.3-1.8-10.8-3.3-10.8-10.5c0-5.9,3.7-9.4,11.3-9.4c3.4,0,6.8,0.7,10,1.9v6.7h-2.9l-0.6-4.3
		c-1.9-0.4-3.9-0.6-5.9-0.6c-2.9,0-5.9,1-5.9,4.9c0,8.4,16.8,2.9,16.8,16.2C253.2,200.2,249.1,203.9,240.7,203.9L240.7,203.9z"/>
	<polygon class="st1" points="276.9,184.3 276.3,180.2 270.5,180.2 270.5,200.3 274.4,200.9 274.4,203.3 260.6,203.3 260.6,200.9 
		264.5,200.3 264.5,180.2 258.7,180.2 258.1,184.3 255.5,184.3 255.5,177 279.5,177 279.5,184.3 276.9,184.3 	"/>
	<path class="st1" d="M292.4,182.1l-3.8,10.4h7.6L292.4,182.1z M295.5,203.3v-2.4l3.8-0.6l-1.9-4.8h-10l-1.9,4.8l3.8,0.6v2.4h-11.5
		v-2.4l3.8-0.6l9-23.3h5.8l9,23.3l3.8,0.6v2.4H295.5z"/>
	<polygon class="st1" points="328.9,184.3 328.3,180.2 322.5,180.2 322.5,200.3 326.4,200.9 326.4,203.3 312.6,203.3 312.6,200.9 
		316.5,200.3 316.5,180.2 310.7,180.2 310.1,184.3 307.5,184.3 307.5,177 331.5,177 331.5,184.3 328.9,184.3 	"/>
	<polygon class="st1" points="356.5,203.3 333.8,203.3 333.8,200.9 337.7,200.3 337.7,180 333.8,179.4 333.8,177 356.5,177 
		356.5,184 353.9,184 353.3,180.2 343.7,180.2 343.7,188 349.7,188 350.3,184.7 352.6,184.7 352.6,194.4 350.3,194.4 349.7,191 
		343.7,191 343.7,200.1 353.3,200.1 353.9,196.4 356.5,196.4 356.5,203.3 	"/>
	<path class="st1" d="M75,222.5v17.1c0,5.8-0.3,8.3-3.1,11c-1.9,2-5.2,2.9-9.9,2.9s-8.2-1.3-10.4-3.5c-2.9-2.9-2.6-7.1-2.6-10.8
		v-16.7l-4-0.6v-2.6h14.4v2.6l-4,0.6v19.6c0,5.5,3,7.7,7.8,7.7c2.5,0,4.6-0.5,5.9-2c1.2-1.2,1.9-3.2,1.9-5.8v-19.6l-4.1-0.6v-2.6
		h12.2v2.6L75,222.5L75,222.5z"/>
	<polygon class="st1" points="106.6,229.6 106.6,252.9 101.9,252.9 88.5,234.1 88.5,249.9 92.4,250.5 92.4,252.9 80.7,252.9 
		80.7,250.5 84.6,249.9 84.6,229.6 80.7,229 80.7,226.6 89.8,226.6 102.7,244.6 102.7,229.6 98.8,229 98.8,226.6 110.5,226.6 
		110.5,229 106.6,229.6 	"/>
	<polygon class="st1" points="113.6,252.9 113.6,250.5 117.6,249.9 117.6,229.6 113.6,229 113.6,226.6 127.5,226.6 127.5,229 
		123.6,229.6 123.6,249.9 127.5,250.5 127.5,252.9 113.6,252.9 	"/>
	<polygon class="st1" points="156.8,229.6 148.1,252.9 142.2,252.9 133.5,229.6 129.7,229 129.7,226.6 143.4,226.6 143.4,229 
		139.6,229.6 146.3,247.7 152.9,229.6 149.1,229 149.1,226.6 160.6,226.6 160.6,229 156.8,229.6 	"/>
	<polygon class="st1" points="185.3,252.9 162.6,252.9 162.6,250.5 166.6,249.9 166.6,229.6 162.6,229 162.6,226.6 185.3,226.6 
		185.3,233.6 182.8,233.6 182.2,229.8 172.6,229.8 172.6,237.6 178.6,237.6 179.2,234.3 181.4,234.3 181.4,244 179.2,244 
		178.6,240.7 172.6,240.7 172.6,249.7 182.2,249.7 182.8,246 185.3,246 185.3,252.9 	"/>
	<path class="st1" d="M205.6,230.6c-1-1.1-3.2-1-4.5-1h-1.8v8.4h1.1c1.7,0,4,0.2,5.3-1.2C207.1,235,207,232.4,205.6,230.6
		L205.6,230.6z M208.4,252.9l-2.4-6c-1.7-4-2.7-5.9-6.2-5.9h-0.5v8.9l3.8,0.6v2.4h-13.7v-2.4l3.9-0.6v-20.3l-3.9-0.6v-2.4h13.3
		c2.7,0,5.9,0.1,7.9,2.1c1.4,1.3,2.1,3,2.1,4.9c0,3-1.9,5.7-4.8,6.7c2.2,1.6,4.1,7.1,5.2,9.7l3.8,0.6v2.4L208.4,252.9z"/>
	<path class="st1" d="M228.8,253.4c-3.1,0-6.1-0.6-9-1.6V245h2.7l0.6,4.3c1.6,0.4,3.2,0.6,4.9,0.6c3.2,0,5.7-1.1,5.7-3.9
		c0-2-1.1-2.7-2.8-3.3c-4.9-1.6-11.1-2.4-11.1-8.9c0-4.7,3.3-7.6,9.7-7.6c3,0,5.9,0.6,8.7,1.6v6.5h-2.7l-0.6-4.1
		c-1.5-0.3-3.1-0.5-4.7-0.5c-2.5,0-4.6,0.9-4.6,3.4c0,5.9,13.9,2,13.9,12.4C239.5,250.6,235.8,253.4,228.8,253.4L228.8,253.4z"/>
	<polygon class="st1" points="242.9,252.9 242.9,250.5 246.9,249.9 246.9,229.6 242.9,229 242.9,226.6 256.8,226.6 256.8,229 
		252.9,229.6 252.9,249.9 256.8,250.5 256.8,252.9 242.9,252.9 	"/>
	<polygon class="st1" points="281,233.9 280.4,229.8 274.6,229.8 274.6,249.9 278.5,250.5 278.5,252.9 264.7,252.9 264.7,250.5 
		268.6,249.9 268.6,229.8 262.8,229.8 262.2,233.9 259.6,233.9 259.6,226.6 283.6,226.6 283.6,233.9 281,233.9 	"/>
	<polygon class="st1" points="311.2,229.6 303.6,241.5 303.6,249.9 307.5,250.5 307.5,252.9 293.6,252.9 293.6,250.5 297.6,249.9 
		297.6,241.5 289.8,229.6 286,229 286,226.6 300,226.6 300,229 296.2,229.6 301.6,238.1 307,229.6 303.4,229 303.4,226.6 315,226.6 
		315,229 311.2,229.6 	"/>
	<polygon class="st1" points="43,271.2 43,273.1 317,273.1 317,271.2 43,271.2 43,271.2 	"/>
	<rect class="st2" width="360" height="357.2"/>
</g>
</svg>
