<svg xmlns="http://www.w3.org/2000/svg" viewBox="0 0 512 512" id="elephant">
  <path fill="#e2e2e2" d="M69.02 161.59a130.019 130.019 0 0 1-21.396-5.998 134.494 134.494 0 0 1-27.801-14.35 2.008 2.008 0 0 0-2.976 2.426 76.5 76.5 0 0 0 17.136 25.697 69.278 69.278 0 0 0 26.083 16.138Z"></path>
  <path fill="#a4aed3" d="M188.886 87.847c-8.963-3.496-49.443-18.18-89.043 1.154-44.684 21.815-70.11 78.087-58.081 137.206-.236 29.84-.607 84.757-.88 126.121a53.55 53.55 0 0 0 53.55 53.906h1.56a4.023 4.023 0 0 0 3.038-6.661l-1.803-2.076a4.024 4.024 0 0 1-.176-5.058l2.912-3.87a4.023 4.023 0 0 0-3.214-6.442 21.726 21.726 0 0 1-21.713-22.433l4.132-127.239 12.96-14.513 49.852-11.693zm313.003 182.652a7.082 7.082 0 0 0 6.135-4.824 7.78 7.78 0 0 0-4-9.804 46.563 46.563 0 0 1-21.13-18.042 51.593 51.593 0 0 1-7.56-22.537 7.191 7.191 0 0 0-7.685-6.774 7.449 7.449 0 0 0-6.27 8.302 67.417 67.417 0 0 0 9.921 29.537 60.93 60.93 0 0 0 27.649 23.64 6.518 6.518 0 0 0 2.94.502zm-36.202-2.794a901.13 901.13 0 0 0-1.137 137.23 30.204 30.204 0 0 0 3.321 11.907l3.142 6.026c2.844 5.454.43 9.916-5.365 9.916H419.59c-5.54 0-8.08-4.399-5.644-9.774l2.84-6.268a30.184 30.184 0 0 0 2.587-14.885 451.835 451.835 0 0 1-1.486-41.337 451.453 451.453 0 0 1 3.596-52.606zm-309.243-23.999-20.378 86.552a305.809 305.809 0 0 0-8.112 67.955l-.002.31c-.066 9.63-4.352 18.353-10.836 24.96-3.14 3.2-1.159 9.3 3.494 9.3h50.148c5.695 0 10.283-5.043 10.184-11.195l-.537-33.446a28.298 28.298 0 0 1 3.322-13.816l28.767-52.347-5.482-79.61c-11.828-4.554-38.74 5.891-50.568 1.337z"></path>
  <path fill="#596381" d="M169.863 247.682a125.903 125.903 0 0 1-13.42-3.976q-.283 1.207-.568 2.413a91.841 91.841 0 0 0 13.988 1.563zm10.385 37.703c3.893 15.738 10.735 44.238 13.68 70.38l18.566-33.786-5.482-79.61c-8.373-3.224-24.303 8.552-37.092 5.328a784.579 784.579 0 0 1 10.328 37.688z"></path>
  <path fill="#a4aed3" d="m280.972 274.875-16.224 28.55a23.97 23.97 0 0 0-3.091 11.687l-.508 87.907a22.08 22.08 0 0 0 2.97 11.256c3.487 5.959 7.262 8.62 6.948 12.982q-.022.306-.071.598a5.843 5.843 0 0 1-5.708 4.929H204.98a9.237 9.237 0 0 1-7.507-3.769 8.202 8.202 0 0 1-1.457-3.251c-1.316-6.684 6.697-13.482 9.417-16.254 18.143-18.49.139-94.27-7.245-124.125a785.69 785.69 0 0 0-10.333-37.7 89.994 89.994 0 0 1-73.05-41.3l7.326-8.756c4.704-12.609 25.428-63.903 73.888-79.455 34.853-11.185 65.152 2.185 116.4 24.799 46.744 20.626 71.289 31.457 82.491 58.2 19.537 46.639-19.366 99.05-24.061 105.197a197.935 197.935 0 0 1-47.983 1.831 199.67 199.67 0 0 1-53.886-12.231"></path>
  <path fill="#596381" d="M417.886 360.52c-.027 2.732-.02 5.417 0 8.078l2.693-9.89a43.56 43.56 0 0 1 15.914-23.644 126.61 126.61 0 0 0 26.694-26.905 902.094 902.094 0 0 1 2.5-40.455l-44.205 40.21a451.425 451.425 0 0 0-3.596 52.606zm65.008-122.691a51.59 51.59 0 0 1-7.56-22.537 7.192 7.192 0 0 0-7.685-6.774 7.449 7.449 0 0 0-6.27 8.302 67.408 67.408 0 0 0 9.922 29.537 61.251 61.251 0 0 0 13.056 14.791 137.79 137.79 0 0 0 4.01-16.233 46.828 46.828 0 0 1-5.473-7.086z"></path>
  <path fill="#a4aed3" d="M354.252 293.802a215.531 215.531 0 0 1 0 60.375c-2.598 18.161-6.127 41.01-21.94 61.933a94.51 94.51 0 0 1-2.098 2.675 8.921 8.921 0 0 0-1.28 8.965l.032.08a7.74 7.74 0 0 0 7.07 4.954h48.75c4.747 0 8.64-4.067 8.798-9.193l.003-.112a10.203 10.203 0 0 0-.55-3.642L391.71 416a13.112 13.112 0 0 1-.253-7.698l15.602-57.31a43.563 43.563 0 0 1 15.914-23.643 127.234 127.234 0 0 0 36.822-43.107 136.763 136.763 0 0 0 15.148-76.473c-.981-10.058-5.562-50.827-37.87-80.443-33.508-30.716-74.02-28.513-92.325-25.462a205.626 205.626 0 0 1-25.497 2.67l-6.363.257a198.352 198.352 0 0 1-45.154-3.282c-12.11-2.307-27.678-4.447-45.67-8.7Z"></path>
  <path fill="#596381" d="M166.783 118.702c20.814-28.96 38.167-30.617 44.403-30.525 39.404.576 84.952 77.694 59.342 127.688-22.77 44.447-96.472 57.1-113.39 37.78-2.94-3.357-3.737-7.19-5.143-14.374-4.91-25.09 2.912-45.792 7.448-55.554Z"></path>
  <path fill="#596381" d="M188.886 87.847a128.496 128.496 0 0 0-22.725-6.465l-.086.103a33.74 33.74 0 0 0-7.616 17.899l-1.544 13.679 10.243 42.139q-2.57 19.162-5.138 38.325Z"></path>
  <path fill="#596381" d="M246.97 236.624c25.782-40.72 12.906-105.914-19.625-117.152-20.54-7.095-43.583 9.161-51.636 15.402l-26.964 59.613-15.57 32.591a89.021 89.021 0 0 0 8.994 6.559 91.102 91.102 0 0 0 45.686 14.048 790.771 790.771 0 0 1 7.038 24.853c21.572-4.963 40.516-17.655 52.076-35.914Z"></path>
  <path fill="#a4aed3" d="M156.956 113.067c5.745-8.413 22.677-30.965 44.403-30.525 34.41.697 66.699 58.778 54.679 105.451-10.552 40.97-54.536 70.395-103.181 61.64-6.894-1.24-11.69-8.524-10.688-15.996l7.448-55.554Z"></path>
  <circle cx="116.774" cy="141.243" r="7.04" fill="#596381"></circle>
  <path fill="#596381" d="M113.102 203.238a4.007 4.007 0 0 0-5.737-.64c-7.333 6.036-20.42 14.711-38.2 16.88a68.22 68.22 0 0 1-28.999-2.767c.433 3.155.95 6.32 1.596 9.496-.035 4.46-.074 9.49-.114 14.943l.114.057a67.534 67.534 0 0 0 36.917 6.298l.488-15.05 12.96-14.513 27.326-6.409Z"></path>
  <path fill="#e2e2e2" d="M113.102 188.238a4.007 4.007 0 0 0-5.737-.64c-7.333 6.036-20.42 14.711-38.2 16.88-29.25 3.57-51.728-12.842-62.28-22.596a2.008 2.008 0 0 0-3.222 2.239c4.826 11.64 15.836 31.363 38.099 42.086 31.599 15.22 60.608.209 66.01-2.753a76.884 76.884 0 0 0 17.69-13.434 3.99 3.99 0 0 0 .314-5.23Z"></path>
  <path fill="#596381" d="M287.514 301.964a43.07 43.07 0 0 0-6.542-27.09L268.98 295.97l.003.003v-.001a202.343 202.343 0 0 0 18.53 5.992zm63.433-12.204a57.19 57.19 0 0 1-4.58 19.004q2.348-.084 4.793-.23 2.352-.14 4.62-.33v-.004c.025-.095.051-.202.076-.327a21.12 21.12 0 0 0-.923-10.462 26.547 26.547 0 0 0-3.986-7.651z"></path>
  <path d="M505.376 252.644a43.114 43.114 0 0 1-19.525-16.68 48.06 48.06 0 0 1-6.831-19.225q-.14-4.564-.596-9.308c-1.876-19.254-9.437-55.598-38.988-82.681-33.907-31.083-74.237-29.845-95.262-26.342a201.773 201.773 0 0 1-25.073 2.625l-6.352.26a195.17 195.17 0 0 1-44.361-3.221c-3.815-.729-7.979-1.443-12.388-2.198-7.947-1.362-16.928-2.905-26.67-5.013-8.817-7.514-18.397-11.626-27.901-11.819a38.122 38.122 0 0 0-16.56 3.63c-18.248-6.193-52.573-13.406-86.565 3.183-25.589 12.494-44.925 35.719-55.068 64.2a132.824 132.824 0 0 1-21.466-11.721 5.507 5.507 0 0 0-8.16 6.662 79.26 79.26 0 0 0 17.918 26.861 73.36 73.36 0 0 0 5.211 4.644 143.979 143.979 0 0 0-1.448 19.72 89.451 89.451 0 0 1-26.027-16.905 5.51 5.51 0 0 0-8.832 6.152c4.644 11.202 15.657 31.368 37.81 42.888-.262 33.167-.651 91.61-.862 123.95a57.05 57.05 0 0 0 57.05 57.424h1.56a7.523 7.523 0 0 0 5.68-12.457l-1.797-2.067a.52.52 0 0 1-.026-.663l2.906-3.865a7.518 7.518 0 0 0-6.003-12.048 18.25 18.25 0 0 1-18.23-18.23c0-.192-.001-.376.008-.596L82.573 235.5a84.093 84.093 0 0 0 26.88-8.978 78.22 78.22 0 0 0 10.786-7.15 93.519 93.519 0 0 0 18.312 16.063c-.092 7.987 4.948 15.209 12.17 17.285l-4.769 20.266q-6.645 28.235-13.299 56.472a309.76 309.76 0 0 0-8.203 68.752v.285c-.06 8.14-3.552 16.141-9.843 22.538a9.131 9.131 0 0 0-1.77 9.966 8.37 8.37 0 0 0 7.773 5.28h50.15a13.224 13.224 0 0 0 9.471-4.031 14.988 14.988 0 0 0 4.208-10.715l-.54-33.443a24.75 24.75 0 0 1 2.899-12.075l6.224-11.335q6.574-11.97 13.152-23.939c4.833 30.327 5.776 57.126-3.24 66.317-.286.29-.634.628-1.024 1.007-3.797 3.694-10.864 10.569-9.331 18.386a11.87 11.87 0 0 0 2.065 4.634 12.815 12.815 0 0 0 10.336 5.195h60.31a9.39 9.39 0 0 0 9.146-7.801 9.88 9.88 0 0 0 .125-.971c.296-4.173-1.868-7.102-4.16-10.203a51.63 51.63 0 0 1-3.261-4.805 18.411 18.411 0 0 1-2.49-9.46l.51-87.914a20.355 20.355 0 0 1 2.634-9.969q1.384-2.44 2.77-4.879a202.991 202.991 0 0 0 52.004 11.41c5.551.465 11.143.698 16.74.698q6.61 0 13.208-.438a209.99 209.99 0 0 1-1.73 41.736c-2.398 16.752-5.683 39.693-21.264 60.308a79.238 79.238 0 0 1-2.027 2.579 12.497 12.497 0 0 0-1.809 12.497l.041.104a11.245 11.245 0 0 0 10.303 7.108h48.75c6.642 0 12.023-5.47 12.294-12.473l.002-.017c.007-.075.01-.15.013-.225a13.853 13.853 0 0 0-.741-4.87l-1.328-3.833a9.681 9.681 0 0 1-.183-5.643l15.6-57.31a41.58 41.58 0 0 1 4.562-10.64 462.74 462.74 0 0 0-.62 19.218c-.129 13.835.377 27.85 1.503 41.659a26.61 26.61 0 0 1-2.293 13.158q-1.28 2.844-2.576 5.688l-.262.577c-1.71 3.784-1.63 7.596.218 10.459a9.925 9.925 0 0 0 8.62 4.252h46.061c3.9 0 7.107-1.602 8.797-4.394 1.782-2.944 1.66-6.822-.335-10.636l-3.14-6.03a26.41 26.41 0 0 1-2.93-10.527 901.661 901.661 0 0 1-2.072-59.508 893.695 893.695 0 0 1 2.786-71.924 141.591 141.591 0 0 0 5.666-16.9 64.47 64.47 0 0 0 23.182 16.87 10.174 10.174 0 0 0 3.899.78q.306 0 .61-.018a10.591 10.591 0 0 0 9.201-7.133 11.348 11.348 0 0 0-5.938-14.216ZM36.427 166.857a71.437 71.437 0 0 1-14.304-19.962 139.282 139.282 0 0 0 18.925 9.837q-1.704 5.73-2.92 11.694c-.57-.521-1.153-1.03-1.7-1.569ZM96.75 385.63a.518.518 0 0 1 .413.836l-2.913 3.874a7.478 7.478 0 0 0 .339 9.456l1.795 2.065a.523.523 0 0 1-.394.869h-1.56a50.05 50.05 0 0 1-50.05-50.377c.205-31.35.576-87.228.838-120.828a70.24 70.24 0 0 0 25.835 4.878c1.528 0 3.02-.063 4.492-.153l-4.012 123.298c-.012.288-.013.564-.013.852a25.259 25.259 0 0 0 25.23 25.23Zm48.886-151.528 7.448-55.555a3.5 3.5 0 1 0-6.938-.93l-6.69 49.91a86.692 86.692 0 0 1-13.906-12.714q2.524-2.36 4.889-4.96a3.5 3.5 0 1 0-5.182-4.707 73.994 73.994 0 0 1-19.169 15.239c-7.499 4.11-34.19 16.453-62.808 2.669-17.702-8.527-27.999-23.233-33.52-34.069 12.471 10.05 33.496 22.181 59.828 18.968 19.808-2.417 34.472-12.48 43.286-20.497a3.5 3.5 0 1 0-4.71-5.18c-8.061 7.333-21.445 16.535-39.424 18.729a64.6 64.6 0 0 1-26.427-2.291 133.772 133.772 0 0 1 6.28-42.683l.01-.018c.014-.037.018-.074.03-.11 9.166-28.382 27.781-51.57 52.742-63.758 28.8-14.054 58.628-9.35 75.192-4.709-9.924 6.896-17.704 16.63-22.503 23.658a3.5 3.5 0 0 0 5.78 3.947c17.488-25.607 33.455-29.148 41.443-29 7.991.162 16.18 3.79 23.842 10.43a3.482 3.482 0 0 0 .275.248 71.69 71.69 0 0 1 9.745 10.58c14.143 18.633 25.038 50.541 17.498 79.821-4.986 19.36-17.685 36.18-35.758 47.364a89.944 89.944 0 0 1-63.414 11.704c-5.006-.9-8.596-6.436-7.839-12.086Zm41.25 127.208-6.237 11.358a31.794 31.794 0 0 0-3.749 15.529l.54 33.45a7.95 7.95 0 0 1-2.199 5.691 6.278 6.278 0 0 1-4.481 1.942h-50.15a1.397 1.397 0 0 1-1.32-.996 2.198 2.198 0 0 1 .315-2.35c7.566-7.693 11.772-17.42 11.845-27.414v-.286a302.685 302.685 0 0 1 8.017-67.171q6.659-28.24 13.299-56.474l4.873-20.705a99.883 99.883 0 0 0 12.375.788 98.05 98.05 0 0 0 15.867-1.298 779.892 779.892 0 0 1 8.911 32.846c3.438 13.911 6.808 28.881 9.48 43.445q-8.698 15.819-17.385 31.645Zm281.022 63.182c.81 1.549 1.02 2.992.551 3.769-.393.647-1.416 1.019-2.809 1.019h-46.06c-.77 0-2.152-.136-2.74-1.049-.527-.814-.421-2.228.277-3.774l.259-.57q1.298-2.855 2.58-5.699a33.614 33.614 0 0 0 2.892-16.613 454.074 454.074 0 0 1-1.478-41.018c.099-9.433.507-18.974 1.197-28.388q1.196-1.056 2.476-2.006a131.36 131.36 0 0 0 35.516-40.095 904.633 904.633 0 0 0-1.6 55.127 908.816 908.816 0 0 0 2.089 59.969 33.373 33.373 0 0 0 3.71 13.296Zm-11.216-141.88a124.434 124.434 0 0 1-35.804 41.925 44.28 44.28 0 0 0-3.948 3.308c-.041.034-.078.073-.118.11a47.688 47.688 0 0 0-13.14 22.116l-15.599 57.307a16.532 16.532 0 0 0 .32 9.768l1.328 3.835a6.831 6.831 0 0 1 .362 2.311 4.04 4.04 0 0 0-.011.188c-.102 3.252-2.43 5.8-5.302 5.8h-48.75a4.263 4.263 0 0 1-3.827-2.768l-.038-.098a5.406 5.406 0 0 1 .741-5.403 85.495 85.495 0 0 0 2.196-2.79c16.674-22.064 20.107-46.04 22.613-63.546a217.464 217.464 0 0 0 1.553-46.75v-.016l-.002-.015q-.537-7.286-1.55-14.578a3.5 3.5 0 0 0-6.933.968q.746 5.34 1.222 10.683a194.372 194.372 0 0 1-28.852-.255 195.932 195.932 0 0 1-49.079-10.613l9.939-17.5a3.5 3.5 0 0 0-6.086-3.458q-8.115 14.281-16.218 28.556a27.362 27.362 0 0 0-3.549 13.392l-.51 87.904a25.403 25.403 0 0 0 3.448 13.042 57.881 57.881 0 0 0 3.674 5.43c1.972 2.669 2.915 4.02 2.814 5.466-.009.082-.014.164-.027.24q-.014.064-.024.128a2.331 2.331 0 0 1-2.245 1.98h-60.31a5.711 5.711 0 0 1-4.674-2.31 4.82 4.82 0 0 1-.862-1.883c-.8-4.078 4.703-9.43 7.347-12.003.433-.422.819-.797 1.138-1.122 10.35-10.55 11.548-37.475 3.565-81.804a3.49 3.49 0 0 0-.229-1.27q-3.63-19.868-9.678-44.35a786.362 786.362 0 0 0-8.817-32.547 94.772 94.772 0 0 0 27.803-11.553c19.616-12.14 33.414-30.454 38.853-51.57 7.034-27.315-.48-61.795-18.701-85.8a88.01 88.01 0 0 0-2.625-3.277c5.966 1.14 11.557 2.099 16.717 2.983 4.375.75 8.508 1.458 12.258 2.175a202.252 202.252 0 0 0 45.963 3.34l6.352-.261a208.677 208.677 0 0 0 25.935-2.714c19.768-3.297 57.662-4.48 89.381 24.598 27.831 25.505 34.972 59.942 36.751 78.2 3.336 34.114-7.817 61.318-14.765 74.5Zm48.032-18.111a3.606 3.606 0 0 1-3.051 2.506 3.1 3.1 0 0 1-1.37-.235 57.469 57.469 0 0 1-23.86-19.094 137.54 137.54 0 0 0 1.727-10.999 51.375 51.375 0 0 0 1.76 3.018 50.187 50.187 0 0 0 22.731 19.399 4.326 4.326 0 0 1 2.063 5.405ZM116.773 130.702a10.541 10.541 0 1 0 10.54 10.541 10.552 10.552 0 0 0-10.54-10.54Zm0 14.082a3.541 3.541 0 1 1 3.54-3.54 3.544 3.544 0 0 1-3.54 3.54Z"></path>
</svg>
